# Blender 3.1.0
# www.blender.org
mtllib untitled.mtl
o Cube
v 1.000000 1.000000 -1.000000
v 1.000000 -1.000000 -1.000000
v 1.000000 1.000000 1.000000
v 1.000000 -1.000000 1.000000
v -1.000000 1.000000 -1.000000
v -1.000000 -1.000000 -1.000000
v -1.000000 1.000000 1.000000
v -1.000000 -1.000000 1.000000
v 0.827023 1.188445 -0.832818
v -0.827023 1.188445 -0.832818
v -0.827023 1.188445 0.832818
v 0.827023 1.188445 0.832818
v 0.827023 -0.822730 1.203017
v 0.827023 0.822730 1.203017
v -0.827023 0.822730 1.203017
v -0.827023 -0.822730 1.203017
v -1.194646 -0.822730 0.832818
v -1.194646 0.822730 0.832818
v -1.194646 0.822730 -0.832818
v -1.194646 -0.822730 -0.832818
v -0.827023 -1.188445 -0.832818
v 0.827023 -1.188445 -0.832818
v 0.827023 -1.188445 0.832818
v -0.827023 -1.188445 0.832818
v 1.194646 -0.822730 -0.832818
v 1.194646 0.822730 -0.832818
v 1.194646 0.822730 0.832818
v 1.194646 -0.822730 0.832818
v -0.827023 -0.822730 -1.203017
v -0.827023 0.822730 -1.203017
v 0.827023 0.822730 -1.203017
v 0.827023 -0.822730 -1.203017
vn -0.0000 1.0000 -0.0000
vn -0.0000 -0.0000 1.0000
vn -1.0000 -0.0000 -0.0000
vn -0.0000 -1.0000 -0.0000
vn 1.0000 -0.0000 -0.0000
vn -0.0000 -0.0000 -1.0000
vn -0.0000 0.6636 -0.7480
vn -0.7367 0.6762 -0.0000
vn -0.0000 0.6636 0.7480
vn 0.7367 0.6762 -0.0000
vn 0.7612 -0.0000 0.6485
vn -0.0000 0.7533 0.6577
vn -0.7612 -0.0000 0.6485
vn -0.0000 -0.7533 0.6577
vn -0.6516 -0.0000 0.7586
vn -0.6733 0.7393 -0.0000
vn -0.6516 -0.0000 -0.7586
vn -0.6733 -0.7393 -0.0000
vn -0.0000 -0.6636 -0.7480
vn 0.7367 -0.6762 -0.0000
vn -0.0000 -0.6636 0.7480
vn -0.7367 -0.6762 -0.0000
vn 0.6516 -0.0000 -0.7586
vn 0.6733 0.7393 -0.0000
vn 0.6516 -0.0000 0.7586
vn 0.6733 -0.7393 -0.0000
vn -0.7612 -0.0000 -0.6485
vn -0.0000 0.7533 -0.6577
vn 0.7612 -0.0000 -0.6485
vn -0.0000 -0.7533 -0.6577
vt 0.625000 0.500000
vt 0.375000 0.500000
vt 0.625000 0.750000
vt 0.375000 0.750000
vt 0.875000 0.500000
vt 0.625000 0.250000
vt 0.125000 0.500000
vt 0.375000 0.250000
vt 0.875000 0.750000
vt 0.625000 1.000000
vt 0.625000 0.000000
vt 0.375000 1.000000
vt 0.375000 0.000000
vt 0.125000 0.750000
vt 0.663466 0.538466
vt 0.836534 0.538466
vt 0.836534 0.711534
vt 0.663466 0.711534
vt 0.413466 0.788466
vt 0.586534 0.788466
vt 0.586534 0.961534
vt 0.413466 0.961534
vt 0.413466 0.038466
vt 0.586534 0.038466
vt 0.586534 0.211534
vt 0.413466 0.211534
vt 0.163466 0.538466
vt 0.336534 0.538466
vt 0.336534 0.711534
vt 0.163466 0.711534
vt 0.413466 0.538466
vt 0.586534 0.538466
vt 0.586534 0.711534
vt 0.413466 0.711534
vt 0.413466 0.288466
vt 0.586534 0.288466
vt 0.586534 0.461534
vt 0.413466 0.461534
s 0
usemtl Material
f 10/16/1 12/18/1 9/15/1
f 14/20/2 16/22/2 13/19/2
f 18/24/3 20/26/3 17/23/3
f 22/28/4 24/30/4 21/27/4
f 26/32/5 28/34/5 25/31/5
f 30/36/6 32/38/6 29/35/6
f 5/5/7 9/15/7 1/1/7
f 7/9/8 10/16/8 5/5/8
f 3/3/9 11/17/9 7/9/9
f 1/1/10 12/18/10 3/3/10
f 3/3/11 13/19/11 4/4/11
f 7/10/12 14/20/12 3/3/12
f 8/12/13 15/21/13 7/10/13
f 4/4/14 16/22/14 8/12/14
f 7/11/15 17/23/15 8/13/15
f 5/6/16 18/24/16 7/11/16
f 6/8/17 19/25/17 5/6/17
f 8/13/18 20/26/18 6/8/18
f 2/2/19 21/27/19 6/7/19
f 4/4/20 22/28/20 2/2/20
f 8/14/21 23/29/21 4/4/21
f 6/7/22 24/30/22 8/14/22
f 1/1/23 25/31/23 2/2/23
f 3/3/24 26/32/24 1/1/24
f 4/4/25 27/33/25 3/3/25
f 2/2/26 28/34/26 4/4/26
f 5/6/27 29/35/27 6/8/27
f 1/1/28 30/36/28 5/6/28
f 2/2/29 31/37/29 1/1/29
f 6/8/30 32/38/30 2/2/30
f 10/16/1 11/17/1 12/18/1
f 14/20/2 15/21/2 16/22/2
f 18/24/3 19/25/3 20/26/3
f 22/28/4 23/29/4 24/30/4
f 26/32/5 27/33/5 28/34/5
f 30/36/6 31/37/6 32/38/6
f 5/5/7 10/16/7 9/15/7
f 7/9/8 11/17/8 10/16/8
f 3/3/9 12/18/9 11/17/9
f 1/1/10 9/15/10 12/18/10
f 3/3/11 14/20/11 13/19/11
f 7/10/12 15/21/12 14/20/12
f 8/12/13 16/22/13 15/21/13
f 4/4/14 13/19/14 16/22/14
f 7/11/15 18/24/15 17/23/15
f 5/6/16 19/25/16 18/24/16
f 6/8/17 20/26/17 19/25/17
f 8/13/18 17/23/18 20/26/18
f 2/2/19 22/28/19 21/27/19
f 4/4/20 23/29/20 22/28/20
f 8/14/21 24/30/21 23/29/21
f 6/7/22 21/27/22 24/30/22
f 1/1/23 26/32/23 25/31/23
f 3/3/24 27/33/24 26/32/24
f 4/4/25 28/34/25 27/33/25
f 2/2/26 25/31/26 28/34/26
f 5/6/27 30/36/27 29/35/27
f 1/1/28 31/37/28 30/36/28
f 2/2/29 32/38/29 31/37/29
f 6/8/30 29/35/30 32/38/30
